Patient4_TMGait_0pt4_02_right_13_GRF.mot
version=1
nRows=26
nColumns=19
inDegrees=no
endheader
time	F1x	F1y	F1z	M1x	M1y	M1z	F2x	F2y	F2z	M2x	M2y	M2z	EC1x	EC1y	EC1z	EC2x	EC2y	EC2z
16.7	-11.4379	710.7529	60.0587	-225.3572	-66.1532	774.2806	28.2519	17.2649	-0.89837	4.0156	-5.6997	10.5169	-0.0592	0.0182	-0.0073	-0.0462	0.0165	0.9585
16.7133	-8.0144	713.4932	62.5963	-224.9655	-67.5658	775.8327	18.8726	12.1493	-0.66947	2.9606	-3.7474	7.7172	-0.0592	0.0182	-0.0073	-0.0462	0.0165	0.9585
16.7266	-5.0339	716.541	64.5614	-224.7558	-68.468	777.2738	10.9451	7.8866	-0.45369	2.0792	-2.0997	5.442	-0.0592	0.0182	-0.0073	-0.0462	0.0165	0.9585
16.7399	-2.6519	720.3494	65.8401	-224.9605	-68.8022	779.0896	4.9007	4.7209	-0.27305	1.4258	-0.84767	3.8262	-0.0592	0.0182	-0.0073	-0.0462	0.0165	0.9585
16.7531	-0.81438	725.3612	66.4121	-225.7739	-68.5496	781.7495	0.72265	2.5958	-0.1372	0.99031	0.014709	2.7979	-0.0592	0.0182	-0.0073	-0.0462	0.0165	0.9585
16.7664	0.63686	731.7742	66.3952	-227.2818	-67.7898	785.4681	-1.8785	1.3317	-0.050104	0.73499	0.557	2.2359	-0.0592	0.0182	-0.0073	-0.0462	0.0165	0.9585
16.7797	1.9354	739.497	65.8666	-229.4633	-66.5392	790.1256	-3.2846	0.70168	-0.01058	0.60916	0.86891	1.9889	-0.0592	0.0182	-0.0073	-0.0462	0.0165	0.9585
16.793	3.2966	748.1446	64.961	-232.1894	-64.8684	795.3127	-3.8641	0.44443	-0.013219	0.54999	1.0359	1.8578	-0.0592	0.0182	-0.0073	-0.0462	0.0165	0.9585
16.8063	4.9336	757.1065	63.7341	-235.2561	-62.7709	800.3774	-3.9702	0.33588	-0.049414	0.4986	1.1366	1.7072	-0.0592	0.0182	-0.0073	-0.0462	0.0165	0.9585
16.8196	7.0017	765.6807	62.2683	-238.4275	-60.2758	804.5946	-3.8262	0.15925	-0.11819	0.39405	1.2239	1.3656	-0.0592	0.0182	-0.0073	-0.0462	0.0165	0.9585
16.8329	9.615	773.1827	60.5862	-241.4726	-57.3693	807.2631	-3.6203	-0.25113	-0.2146	0.18383	1.3328	0.70952	-0.0592	0.0182	-0.0073	-0.0462	0.0165	0.9585
16.8461	12.8515	779.0011	58.7388	-244.1777	-54.0779	807.7858	-3.4381	-1.0495	-0.33103	-0.18175	1.469	-0.408	-0.0592	0.0182	-0.0073	-0.0462	0.0165	0.9585
16.8594	16.7334	782.6652	56.7338	-246.3632	-50.4037	805.749	-3.2905	-2.3174	-0.45568	-0.73296	1.6139	-2.0651	-0.0592	0.0182	-0.0073	-0.0462	0.0165	0.9585
16.8727	21.242	783.8497	54.6282	-247.8812	-46.4147	800.9165	-3.1294	-4.0562	-0.56244	-1.471	1.7156	-4.2515	-0.0592	0.0182	-0.0073	-0.0462	0.0165	0.9585
16.886	26.2878	782.3671	52.4933	-248.6117	-42.2179	793.2319	-2.8362	-6.1633	-0.61277	-2.35	1.6835	-6.8488	-0.0592	0.0182	-0.0073	-0.0462	0.0165	0.9585
16.8993	31.7598	778.204	50.4858	-248.4752	-38.012	782.8411	-2.2654	-8.3036	-0.55196	-3.2361	1.3943	-9.4594	-0.0592	0.0182	-0.0073	-0.0462	0.0165	0.9585
16.9126	37.4903	771.6084	48.7812	-247.4687	-34.0273	770.1744	-1.1848	-9.8812	-0.30835	-3.8884	0.67985	-11.3944	-0.0592	0.0182	-0.0073	-0.0462	0.0165	0.9585
16.9259	43.2871	763.107	47.5696	-245.6782	-30.5219	755.9405	0.61654	-9.9547	0.21107	-3.9249	-0.64739	-11.5343	-0.0592	0.0182	-0.0073	-0.0462	0.0165	0.9585
16.9391	48.9413	753.3648	46.9804	-243.2482	-27.6987	740.9759	3.3458	-7.1829	1.1043	-2.8005	-2.7748	-8.2815	-0.0592	0.0182	-0.0073	-0.0462	0.0165	0.9585
16.9524	54.2003	743.0038	47.0692	-240.3259	-25.7069	726.0866	7.1181	0.18377	2.4581	0.19388	-5.8371	0.45541	-0.0592	0.0182	-0.0073	-0.0462	0.0165	0.9585
16.9657	58.7861	732.3229	47.7581	-236.9778	-24.5759	711.7266	11.8193	14.1806	4.321	5.8804	-9.8247	17.1198	-0.0592	0.0182	-0.0073	-0.0462	0.0165	0.9585
16.979	62.3667	721.0684	48.8701	-233.1133	-24.2545	697.8051	17.0222	36.8468	6.6511	15.0808	-14.4855	44.1386	-0.0592	0.0182	-0.0073	-0.0462	0.0165	0.9585
16.9923	64.606	708.2967	50.0986	-228.4465	-24.5673	683.5176	21.7741	69.7202	9.237	28.4094	-19.1646	83.3464	-0.0592	0.0182	-0.0073	-0.0462	0.0165	0.9585
17.0056	65.1687	692.5172	51.0684	-222.5398	-25.2708	667.4793	24.4418	112.9411	11.6161	45.918	-22.651	134.9032	-0.0592	0.0182	-0.0073	-0.0462	0.0165	0.9585
17.0189	63.8309	672.1224	51.3268	-214.9453	-26.0103	648.1103	23.0295	164.5345	12.9754	66.7766	-23.2042	196.5129	-0.0592	0.0182	-0.0073	-0.0462	0.0165	0.9585
17.0321	60.6096	645.9298	50.4947	-205.3807	-26.4181	624.1269	16.6253	220.2447	12.2802	89.1859	-19.2808	263.2421	-0.0592	0.0182	-0.0073	-0.0462	0.0165	0.9585
